<svg width="24" height="24" fill="none" xmlns="http://www.w3.org/2000/svg"><path d="M12 2.25A9.75 9.75 0 1 0 21.75 12 9.761 9.761 0 0 0 12 2.25ZM20.25 12a8.21 8.21 0 0 1-.312 2.25h-3.61a14.76 14.76 0 0 0 0-4.5h3.61A8.21 8.21 0 0 1 20.25 12ZM9.562 15.75h4.876A10.792 10.792 0 0 1 12 19.969a10.808 10.808 0 0 1-2.438-4.219Zm-.365-1.5a13.204 13.204 0 0 1 0-4.5h5.614a13.203 13.203 0 0 1 0 4.5H9.197ZM3.75 12c0-.76.104-1.518.312-2.25h3.61a14.76 14.76 0 0 0 0 4.5h-3.61A8.214 8.214 0 0 1 3.75 12Zm10.688-3.75H9.561A10.792 10.792 0 0 1 12 4.031a10.806 10.806 0 0 1 2.438 4.219Zm4.905 0h-3.339a12.682 12.682 0 0 0-2.09-4.275 8.276 8.276 0 0 1 5.433 4.275h-.004Zm-9.256-4.275c-.96 1.28-1.67 2.73-2.091 4.275H4.653a8.277 8.277 0 0 1 5.434-4.275ZM4.653 15.75h3.343a12.682 12.682 0 0 0 2.09 4.275 8.276 8.276 0 0 1-5.433-4.275Zm9.26 4.275c.96-1.28 1.67-2.73 2.091-4.275h3.343a8.277 8.277 0 0 1-5.434 4.275Z" fill="#0D0D0D"/></svg>