<svg width="24" height="24" fill="none" xmlns="http://www.w3.org/2000/svg"><g clip-path="url(#a)"><path d="M23.444 12.224c0-.983-.08-1.7-.253-2.445H11.963v4.438h6.59c-.132 1.103-.85 2.764-2.444 3.88l-.022.149 3.55 2.75.246.024c2.259-2.086 3.56-5.155 3.56-8.796Z" fill="#4285F4"/><path d="M11.963 23.918c3.23 0 5.94-1.063 7.92-2.897l-3.774-2.923c-1.01.704-2.365 1.196-4.146 1.196-3.162 0-5.846-2.086-6.803-4.97l-.14.012-3.691 2.857-.049.134c1.967 3.907 6.006 6.59 10.684 6.59Z" fill="#34A853"/><path d="M5.16 14.324a7.362 7.362 0 0 1-.398-2.365c0-.824.146-1.621.385-2.366l-.007-.158-3.737-2.903-.123.058A11.97 11.97 0 0 0 .005 11.96c0 1.926.465 3.747 1.275 5.368l3.88-3.003Z" fill="#FBBC05"/><path d="M11.963 4.624c2.246 0 3.76.97 4.624 1.78l3.375-3.295C17.89 1.183 15.192 0 11.964 0 7.285 0 3.246 2.684 1.28 6.59l3.867 3.004c.97-2.884 3.654-4.97 6.816-4.97Z" fill="#EB4335"/></g><defs><clipPath id="a"><path fill="#fff" d="M0 0h23.46v24H0z"/></clipPath></defs></svg>