<svg width="24" height="24" fill="none" xmlns="http://www.w3.org/2000/svg"><path d="M18.897 5.106a9.75 9.75 0 1 0 0 13.788 9.692 9.692 0 0 0 0-13.788ZM6.164 6.166a8.215 8.215 0 0 1 5.03-2.373 8.185 8.185 0 0 1-2.382 5.025 8.196 8.196 0 0 1-5.026 2.377 8.21 8.21 0 0 1 2.378-5.03ZM3.781 12.7a9.683 9.683 0 0 0 6.094-2.823 9.679 9.679 0 0 0 2.824-6.093 8.23 8.23 0 0 1 7.517 7.513 9.75 9.75 0 0 0-8.921 8.915A8.23 8.23 0 0 1 3.778 12.7l.003.001Zm14.055 5.133a8.221 8.221 0 0 1-5.03 2.373 8.25 8.25 0 0 1 7.406-7.402 8.21 8.21 0 0 1-2.376 5.03Z" fill="#0D0D0D"/></svg>